<?xml version="1.0" encoding="utf-8"?>
<svg id="svg4306" width="22" height="22" version="1.1" style="enable-background:new" xmlns="http://www.w3.org/2000/svg" xmlns:bx="https://boxy-svg.com" viewBox="0 0 22 22"><g id="pressed-inactive-center" style="" transform="matrix(1, 0, 0, 1, 0.051679, -0.206716)"><rect y="22" x="0" height="22" width="22" id="rect953-2-7-6-5" style="opacity: 0.00100002; fill: rgb(5, 5, 5); fill-opacity: 1; stroke-width: 1.001; pointer-events: none;"/><path d="M 18.383 40.323 L 18.38 40.26 L 18.38 32.043 L 17.225 32.064 L 17.205 28.623 L 16.2 28.623 L 16.18 27.518 L 15.134 27.518 L 15.134 26.454 L 13.023 26.433 L 12.982 25.912 L 8.718 25.912 L 8.697 26.412 L 6.688 26.433 L 6.688 27.497 L 5.581 27.476 L 5.581 28.561 L 4.433 28.561 L 4.413 31.897 L 3.613 31.876 L 3.634 40.302 L 4.433 40.302 L 4.438 39.426 L 5.561 39.426 L 5.561 38.237 L 6.695 38.23 L 6.695 39.342 L 7.761 39.356 L 7.775 40.344 L 9.756 40.357 L 9.756 38.23 L 11.834 38.216 L 11.82 40.344 L 14.212 40.357 L 14.225 39.287 L 15.196 39.287 L 15.185 38.216 L 16.169 38.216 L 16.18 39.28 L 17.205 39.259 L 17.205 40.333 L 18.383 40.323 Z" style="fill: rgb(255, 48, 23); fill-opacity: 1;"/><path d="M 15.257 29.663 L 14.068 29.663 L 14.068 28.638 L 11.895 28.638 L 11.895 29.663 L 10.952 29.663 L 10.952 32.8 L 11.895 32.8 L 11.895 33.907 L 14.068 33.907 L 14.068 32.8 L 15.257 32.8 L 15.257 29.663 Z" style="fill: rgb(255, 255, 255); fill-opacity: 1;"/><path d="M 8.861 29.735 L 7.672 29.735 L 7.672 28.72 L 5.499 28.72 L 5.499 29.735 L 4.556 29.735 L 4.556 32.839 L 5.499 32.839 L 5.499 33.934 L 7.672 33.934 L 7.672 32.839 L 8.861 32.839 L 8.861 29.735 Z" style="fill: rgb(255, 255, 255); fill-opacity: 1;"/><path d="M 14.002 31.793 L 11.952 31.793 L 11.952 29.846 L 14.002 29.846 L 14.002 31.793 Z" style="fill: rgb(27, 79, 170); fill-opacity: 1;"/><path d="M 7.606 31.832 L 5.556 31.832 L 5.556 29.905 L 7.606 29.905 L 7.606 31.832 Z" style="fill: rgb(27, 79, 170); fill-opacity: 1;"/></g><g id="hover-center" style=""><rect style="opacity: 0.00100002; fill: rgb(5, 5, 5); fill-opacity: 1; stroke-width: 1.001;" id="rect953-2-7-2" width="22" height="22" x="-22" y="0"/><path d="M -3.554 18.153 L -3.557 18.09 L -3.557 9.873 L -4.712 9.894 L -4.732 6.453 L -5.737 6.453 L -5.757 5.348 L -6.803 5.348 L -6.803 4.284 L -8.914 4.263 L -8.955 3.742 L -13.219 3.742 L -13.24 4.242 L -15.249 4.263 L -15.249 5.327 L -16.356 5.306 L -16.356 6.391 L -17.504 6.391 L -17.524 9.727 L -18.324 9.706 L -18.303 18.132 L -17.504 18.132 L -17.499 17.256 L -16.376 17.256 L -16.376 16.067 L -15.242 16.06 L -15.242 17.172 L -14.176 17.186 L -14.162 18.174 L -12.181 18.187 L -12.181 16.06 L -10.103 16.046 L -10.117 18.174 L -7.725 18.187 L -7.712 17.117 L -6.741 17.117 L -6.752 16.046 L -5.768 16.046 L -5.757 17.11 L -4.732 17.089 L -4.732 18.163 L -3.554 18.153 Z" style="fill: rgb(255, 48, 23); fill-opacity: 1;"/><path d="M -6.68 7.493 L -7.869 7.493 L -7.869 6.468 L -10.042 6.468 L -10.042 7.493 L -10.985 7.493 L -10.985 10.63 L -10.042 10.63 L -10.042 11.737 L -7.869 11.737 L -7.869 10.63 L -6.68 10.63 L -6.68 7.493 Z" style="fill: rgb(255, 255, 255); fill-opacity: 1;"/><path d="M -13.076 7.565 L -14.265 7.565 L -14.265 6.55 L -16.438 6.55 L -16.438 7.565 L -17.381 7.565 L -17.381 10.669 L -16.438 10.669 L -16.438 11.764 L -14.265 11.764 L -14.265 10.669 L -13.076 10.669 L -13.076 7.565 Z" style="fill: rgb(255, 255, 255); fill-opacity: 1;"/><path d="M -8.935 9.623 L -10.985 9.623 L -10.985 7.676 L -8.935 7.676 L -8.935 9.623 Z" style="fill: rgb(27, 79, 170); fill-opacity: 1;"/><path d="M -15.331 9.662 L -17.381 9.662 L -17.381 7.735 L -15.331 7.735 L -15.331 9.662 Z" style="fill: rgb(27, 79, 170); fill-opacity: 1;"/></g><g id="active-center" transform="translate(-44)" style=""><rect style="opacity:0.00100002;fill:#050505;fill-opacity:1;stroke-width:1.001;enable-background:new" id="rect953-2-7-2-75" width="22" height="22" x="0" y="0"/><path style="fill-opacity: 1; stroke: none; stroke-width: 0.39374; fill: rgb(43, 66, 84);" id="center-3-35-5" d="M 11.044 7.695 H 11.044 A 3.3 3.3 0 0 1 14.344 10.995 V 10.995 A 3.3 3.3 0 0 1 11.044 14.295 H 11.044 A 3.3 3.3 0 0 1 7.744 10.995 V 10.995 A 3.3 3.3 0 0 1 11.044 7.695 Z" bx:shape="rect 7.744 7.695 6.6 6.6 7.875 7.875 3.3 3.3 1@ec4e8b90"/></g><defs id="defs38"><bx:export><bx:file format="svg"/></bx:export><bx:guide x="-32.606" y="11.035" angle="90"/><bx:guide x="-32.917" y="20.854" angle="0"/><bx:guide x="-43.148" y="33.05" angle="90"/><bx:guide x="10.96" y="-0.139" angle="0"/><bx:guide x="-10.953" y="0.888" angle="0"/><bx:guide x="-5.423" y="25.677" angle="90"/><bx:guide x="-3.976" y="40.096" angle="90"/><bx:guide x="8.995" y="3.846" angle="90"/><bx:guide x="10.184" y="18.212" angle="90"/></defs><style type="text/css" id="current-color-scheme"/><g id="inactive-center" transform="translate(-44,22)" style=""><rect style="opacity:0.00100002;fill:#050505;fill-opacity:1;stroke-width:1.001" id="rect953-2" width="22" height="22" x="0" y="0"/><rect style="fill-opacity: 1; stroke: none; stroke-width: 0.39374; fill: rgb(43, 66, 84);" id="rect-1" x="7.706" y="7.701" width="6.6" height="6.6" rx="3.3" ry="3.3"/></g><g id="pressed-center" style=""><rect style="opacity:0.00100002;fill:#050505;fill-opacity:1;stroke-width:1.001" id="rect953-2-7-6" width="22" height="22" x="0" y="0"/><path d="M 18.346 18.189 L 18.343 18.126 L 18.343 9.909 L 17.188 9.93 L 17.168 6.489 L 16.163 6.489 L 16.143 5.384 L 15.097 5.384 L 15.097 4.32 L 12.986 4.299 L 12.945 3.778 L 8.681 3.778 L 8.66 4.278 L 6.651 4.299 L 6.651 5.363 L 5.544 5.342 L 5.544 6.427 L 4.396 6.427 L 4.376 9.763 L 3.576 9.742 L 3.597 18.168 L 4.396 18.168 L 4.401 17.292 L 5.524 17.292 L 5.524 16.103 L 6.658 16.096 L 6.658 17.208 L 7.724 17.222 L 7.738 18.21 L 9.719 18.223 L 9.719 16.096 L 11.797 16.082 L 11.783 18.21 L 14.175 18.223 L 14.188 17.153 L 15.159 17.153 L 15.148 16.082 L 16.132 16.082 L 16.143 17.146 L 17.168 17.125 L 17.168 18.199 L 18.346 18.189 Z" style="fill: rgb(255, 48, 23); fill-opacity: 1;"/><path d="M 15.22 7.529 L 14.031 7.529 L 14.031 6.504 L 11.858 6.504 L 11.858 7.529 L 10.915 7.529 L 10.915 10.666 L 11.858 10.666 L 11.858 11.773 L 14.031 11.773 L 14.031 10.666 L 15.22 10.666 L 15.22 7.529 Z" style="fill: rgb(255, 255, 255); fill-opacity: 1;"/><path d="M 8.824 7.601 L 7.635 7.601 L 7.635 6.586 L 5.462 6.586 L 5.462 7.601 L 4.519 7.601 L 4.519 10.705 L 5.462 10.705 L 5.462 11.8 L 7.635 11.8 L 7.635 10.705 L 8.824 10.705 L 8.824 7.601 Z" style="fill: rgb(255, 255, 255); fill-opacity: 1;"/><path d="M 13.965 9.659 L 11.915 9.659 L 11.915 7.712 L 13.965 7.712 L 13.965 9.659 Z" style="fill: rgb(27, 79, 170); fill-opacity: 1;"/><path d="M 7.569 9.698 L 5.519 9.698 L 5.519 7.771 L 7.569 7.771 L 7.569 9.698 Z" style="fill: rgb(27, 79, 170); fill-opacity: 1;"/></g><g id="hover-inactive-center" style=""><rect y="22" x="-22" height="22" width="22" id="rect953-2-7-2-7" style="opacity:0.00100002;fill:#050505;fill-opacity:1;stroke-width:1.001"/><path d="M -3.592 40.139 L -3.595 40.076 L -3.595 31.859 L -4.75 31.88 L -4.77 28.439 L -5.775 28.439 L -5.795 27.334 L -6.841 27.334 L -6.841 26.27 L -8.952 26.249 L -8.993 25.728 L -13.257 25.728 L -13.278 26.228 L -15.287 26.249 L -15.287 27.313 L -16.394 27.292 L -16.394 28.377 L -17.542 28.377 L -17.562 31.713 L -18.362 31.692 L -18.341 40.118 L -17.542 40.118 L -17.537 39.242 L -16.414 39.242 L -16.414 38.053 L -15.28 38.046 L -15.28 39.158 L -14.214 39.172 L -14.2 40.16 L -12.219 40.173 L -12.219 38.046 L -10.141 38.032 L -10.155 40.16 L -7.763 40.173 L -7.75 39.103 L -6.779 39.103 L -6.79 38.032 L -5.806 38.032 L -5.795 39.096 L -4.77 39.075 L -4.77 40.149 L -3.592 40.139 Z" style="fill: rgb(255, 48, 23); fill-opacity: 1;"/><path d="M -6.718 29.479 L -7.907 29.479 L -7.907 28.454 L -10.08 28.454 L -10.08 29.479 L -11.023 29.479 L -11.023 32.616 L -10.08 32.616 L -10.08 33.723 L -7.907 33.723 L -7.907 32.616 L -6.718 32.616 L -6.718 29.479 Z" style="fill: rgb(255, 255, 255); fill-opacity: 1;"/><path d="M -13.114 29.551 L -14.303 29.551 L -14.303 28.536 L -16.476 28.536 L -16.476 29.551 L -17.419 29.551 L -17.419 32.655 L -16.476 32.655 L -16.476 33.75 L -14.303 33.75 L -14.303 32.655 L -13.114 32.655 L -13.114 29.551 Z" style="fill: rgb(255, 255, 255); fill-opacity: 1;"/><path d="M -8.973 31.609 L -11.023 31.609 L -11.023 29.662 L -8.973 29.662 L -8.973 31.609 Z" style="fill: rgb(27, 79, 170); fill-opacity: 1;"/><path d="M -15.369 31.648 L -17.419 31.648 L -17.419 29.721 L -15.369 29.721 L -15.369 31.648 Z" style="fill: rgb(27, 79, 170); fill-opacity: 1;"/></g></svg>