<svg xmlns="http://www.w3.org/2000/svg" enable-background="new 0 0 25 25" viewBox="0 0 25 25"><path fill="#583689" d="M21.5 10h-12.26v-2h12.26c.397 0 .785-.159 1.063-.438.278-.277.437-.664.437-1.062 0-.827-.673-1.5-1.5-1.5h-12.26v-2h12.26c1.93 0 3.5 1.57 3.5 3.5 0 .926-.373 1.828-1.023 2.478-.66.659-1.539 1.022-2.477 1.022zM15.76 22h-12.26c-.938 0-1.817-.363-2.477-1.023-.65-.649-1.023-1.551-1.023-2.477 0-1.93 1.57-3.5 3.5-3.5h12.26v2h-12.26c-.827 0-1.5.673-1.5 1.5 0 .398.159.785.437 1.062.278.279.666.438 1.063.438h12.26z"/><g fill="#de002a"><path d="M5.5 12c-3.033 0-5.5-2.468-5.5-5.5s2.467-5.5 5.5-5.5 5.5 2.468 5.5 5.5-2.467 5.5-5.5 5.5zm0-9c-1.93 0-3.5 1.57-3.5 3.5s1.57 3.5 3.5 3.5 3.5-1.57 3.5-3.5-1.57-3.5-3.5-3.5zM19.5 24c-3.033 0-5.5-2.468-5.5-5.5s2.467-5.5 5.5-5.5 5.5 2.468 5.5 5.5-2.467 5.5-5.5 5.5zm0-9c-1.93 0-3.5 1.57-3.5 3.5s1.57 3.5 3.5 3.5 3.5-1.57 3.5-3.5-1.57-3.5-3.5-3.5z"/></g></svg>