<?xml version="1.0" encoding="utf-8"?>
<svg id="svg4306" width="22" height="22" version="1.1" style="enable-background:new" xmlns="http://www.w3.org/2000/svg" xmlns:bx="https://boxy-svg.com" viewBox="0 0 22 22"><g id="pressed-inactive-center" transform="translate(0,22)" style=""><rect style="opacity:0.00100002;fill:#000000;fill-opacity:1;fill-rule:nonzero;stroke:none;stroke-width:2;stroke-linecap:round;stroke-linejoin:round;stroke-miterlimit:4;stroke-dasharray:none;stroke-opacity:1" y="0" x="0" height="22" width="22" id="rect4266-3-6-5"/><path d="M 18.207 7.651 L 16.681 7.651 L 16.681 6.017 L 15.973 6.017 L 15.973 5.199 L 6.873 5.199 L 6.873 6.017 L 6.165 6.017 L 6.165 7.651 L 4.367 7.651 L 4.367 14.299 L 6.165 14.299 L 6.165 17.296 L 7.364 17.296 L 7.364 18.549 L 10.306 18.549 L 10.306 17.296 L 13.031 17.296 L 13.031 18.385 L 15.918 18.385 L 15.918 17.296 L 16.681 17.296 L 16.681 14.299 L 18.207 14.299 L 18.207 7.651 Z" style="fill-opacity: 1; fill: rgb(68, 242, 73);"/><path d="M 10.197 7.597 L 11.015 7.57 L 10.987 6.017 L 12.622 6.017 L 12.595 3.374 L 11.096 3.347 L 11.124 5.118 L 10.225 5.118 L 10.197 3.538 L 6.056 3.538 L 6.029 5.199 L 7.691 5.199 L 7.691 5.853 L 7.664 6.398 L 10.17 6.371 L 10.197 7.597 Z" style="fill-opacity: 1; fill: rgb(167, 92, 34);"/><path d="M 7.664 11.738 L 6.247 11.738 L 6.247 9.259 L 7.664 9.259 L 7.664 11.738 Z" style="fill: rgb(255, 255, 255); fill-opacity: 1;"/><path d="M 8.602 9.177 L 7.854 9.177 L 7.854 7.869 L 8.602 7.869 L 8.602 9.177 Z" style="fill: rgb(255, 255, 255); fill-opacity: 1;"/></g><g id="pressed-center" transform="translate(0,22)" style=""><rect id="rect4266-3-6" width="22" height="22" x="0" y="-22" style="opacity:0.00100002;fill:#000000;fill-opacity:1;fill-rule:nonzero;stroke:none;stroke-width:2;stroke-linecap:round;stroke-linejoin:round;stroke-miterlimit:4;stroke-dasharray:none;stroke-opacity:1"/><path d="M 18.457 -14.44 L 16.932 -14.44 L 16.932 -16.075 L 16.223 -16.075 L 16.223 -16.892 L 7.124 -16.892 L 7.124 -16.075 L 6.415 -16.075 L 6.415 -14.44 L 4.617 -14.44 L 4.617 -7.792 L 6.415 -7.792 L 6.415 -4.796 L 7.614 -4.796 L 7.614 -3.542 L 10.556 -3.542 L 10.556 -4.796 L 13.281 -4.796 L 13.281 -3.706 L 16.169 -3.706 L 16.169 -4.796 L 16.932 -4.796 L 16.932 -7.792 L 18.457 -7.792 L 18.457 -14.44 Z" style="fill-opacity: 1; fill: rgb(68, 242, 73);"/><path d="M 10.448 -14.494 L 11.265 -14.522 L 11.238 -16.074 L 12.872 -16.074 L 12.845 -18.717 L 11.347 -18.744 L 11.374 -16.973 L 10.475 -16.973 L 10.448 -18.554 L 6.307 -18.554 L 6.279 -16.892 L 7.941 -16.892 L 7.941 -16.238 L 7.914 -15.693 L 10.42 -15.72 L 10.448 -14.494 Z" style="fill-opacity: 1; fill: rgb(167, 92, 34);"/><path d="M 7.914 -10.353 L 6.497 -10.353 L 6.497 -12.832 L 7.914 -12.832 L 7.914 -10.353 Z" style="fill: rgb(255, 255, 255); fill-opacity: 1;"/><path d="M 8.852 -12.914 L 8.105 -12.914 L 8.105 -14.222 L 8.852 -14.222 L 8.852 -12.914 Z" style="fill: rgb(255, 255, 255); fill-opacity: 1;"/></g><g id="hover-center" transform="translate(0,22)"><path d="M -3.825 -14.166 L -5.351 -14.166 L -5.351 -15.8 L -6.059 -15.8 L -6.059 -16.618 L -15.159 -16.618 L -15.159 -15.8 L -15.867 -15.8 L -15.867 -14.166 L -17.665 -14.166 L -17.665 -7.518 L -15.867 -7.518 L -15.867 -4.521 L -14.668 -4.521 L -14.668 -3.268 L -11.726 -3.268 L -11.726 -4.521 L -9.001 -4.521 L -9.001 -3.432 L -6.114 -3.432 L -6.114 -4.521 L -5.351 -4.521 L -5.351 -7.518 L -3.825 -7.518 L -3.825 -14.166 Z" style="fill-opacity: 1; fill: rgb(91, 192, 94);"/><path d="M -11.835 -14.22 L -11.017 -14.247 L -11.045 -15.8 L -9.41 -15.8 L -9.437 -18.443 L -10.936 -18.47 L -10.908 -16.699 L -11.807 -16.699 L -11.835 -18.279 L -15.976 -18.279 L -16.003 -16.618 L -14.341 -16.618 L -14.341 -15.964 L -14.368 -15.419 L -11.862 -15.446 L -11.835 -14.22 Z" style="fill-opacity: 1; fill: rgb(167, 92, 34);"/><path d="M -14.368 -10.079 L -15.785 -10.079 L -15.785 -12.558 L -14.368 -12.558 L -14.368 -10.079 Z" style="fill: rgb(255, 255, 255); fill-opacity: 1;" id="object-0"/><path d="M -13.43 -12.64 L -14.178 -12.64 L -14.178 -13.948 L -13.43 -13.948 L -13.43 -12.64 Z" style="fill: rgb(255, 255, 255); fill-opacity: 1;" id="object-1"/><rect style="opacity:0.00100002;fill:#000000;fill-opacity:1;fill-rule:nonzero;stroke:none;stroke-width:2;stroke-linecap:round;stroke-linejoin:round;stroke-miterlimit:4;stroke-dasharray:none;stroke-opacity:1" y="-22" x="-22" height="22" width="22" id="rect4266-3"/></g><defs id="defs26"><bx:guide x="-32.893" y="10.536" angle="0"/><bx:guide x="-26.695" y="22.049" angle="90"/><bx:guide x="-43.964" y="32.977" angle="90"/><bx:export><bx:file format="svg"/><bx:file format="svg" href="#object-0" path="Untitled 2.svg"/><bx:file format="svg" href="#object-1" path="Untitled 3.svg"/></bx:export><bx:guide x="-14.962" y="0.026" angle="90"/></defs><style type="text/css" id="current-color-scheme"/><g id="active-center" transform="translate(-44)" style=""><rect id="rect4266" width="22" height="22" x="0" y="0" style="opacity:0.00100002;fill:#000000;fill-opacity:1;fill-rule:nonzero;stroke:none;stroke-width:2;stroke-linecap:round;stroke-linejoin:round;stroke-miterlimit:4;stroke-dasharray:none;stroke-opacity:1"/><rect style="fill-opacity: 1; stroke: none; stroke-width: 0.39374; fill: rgb(43, 66, 84);" id="center-3-35-5-7" width="6.572" height="6.572" x="7.775" y="7.719" ry="7.875" rx="7.875"/></g><g id="inactive-center" transform="translate(-44,22)" style=""><rect style="opacity: 0.00100002; fill-opacity: 1; fill-rule: nonzero; stroke: none; stroke-width: 2; stroke-linecap: round; stroke-linejoin: round; stroke-miterlimit: 4; stroke-dasharray: none; stroke-opacity: 1; fill: rgb(43, 66, 84);" y="0" x="0" height="22" width="22" id="rect4266-9"/><rect style="stroke: none; stroke-width: 0.39374; fill: rgb(43, 66, 84);" id="center-3-35-5-7-62" x="7.774" y="7.442" width="6.6" height="6.6" rx="7.875" ry="7.875"/></g><g id="hover-inactive-center" transform="translate(0,22)" style=""><rect id="rect4266-3-67" width="22" height="22" x="-22" y="0" style="opacity:0.00100002;fill:#000000;fill-opacity:1;fill-rule:nonzero;stroke:none;stroke-width:2;stroke-linecap:round;stroke-linejoin:round;stroke-miterlimit:4;stroke-dasharray:none;stroke-opacity:1"/><g transform="matrix(0.092029, 0, 0, -0.092029, -103.11866, 56.222836)" style=""><g transform="matrix(1, 0, 0, 1, 1079.303223, 526.462402)"><path d="M 0 0 L -16.896 0 L -16.896 18.104 L -24.742 18.104 L -24.742 27.156 L -125.521 27.156 L -125.521 18.104 L -133.366 18.104 L -133.366 0 L -153.279 0 L -153.279 -73.622 L -133.366 -73.622 L -133.366 -106.813 L -120.09 -106.813 L -120.09 -120.693 L -87.502 -120.693 L -87.502 -106.813 L -57.329 -106.813 L -57.329 -118.882 L -25.346 -118.882 L -25.346 -106.813 L -16.896 -106.813 L -16.896 -73.622 L 0 -73.622 Z" style="fill-opacity: 1; fill: rgb(91, 192, 94);"/></g><g transform="matrix(1, 0, 0, 1, 990.59613, 527.064392)"><path d="M 0 0 L 9.053 0.302 L 8.75 17.501 L 26.854 17.501 L 26.553 46.769 L 9.957 47.07 L 10.258 27.458 L 0.301 27.458 L 0 44.959 L -45.864 44.959 L -46.165 26.553 L -27.76 26.553 L -27.76 19.311 L -28.061 13.277 L -0.303 13.578 Z" style="fill-opacity: 1; fill: rgb(167, 92, 34);"/></g><g transform="matrix(1, 0, 0, 1, 517.486206, 2.19346)"><path d="M 445.05 479.007 L 429.359 479.007 L 429.359 506.466 L 445.05 506.466 Z" style="fill: rgb(255, 255, 255); fill-opacity: 1;"/><path d="M 455.437 507.372 L 447.161 507.372 L 447.161 521.855 L 455.437 521.855 Z" style="fill: rgb(255, 255, 255); fill-opacity: 1;"/></g></g></g><g transform="matrix(0.090291, 0, 0, -0.090291, -101.393044, 55.293228)" style=""/></svg>