<?xml version="1.0" encoding="utf-8"?>
<svg id="svg4306" width="22" height="22" version="1.1" style="enable-background:new" xmlns="http://www.w3.org/2000/svg" xmlns:bx="https://boxy-svg.com" viewBox="0 0 22 22"><g id="inactive-center" transform="translate(-44,22)"><rect style="opacity:0.00100002;fill:#000000;fill-opacity:1;fill-rule:nonzero;stroke:none;stroke-width:2;stroke-linecap:round;stroke-linejoin:round;stroke-miterlimit:4;stroke-dasharray:none;stroke-opacity:1" y="0" x="0" height="22" width="22" id="rect4266-9"/><path style="fill-opacity: 0.6; stroke: none; stroke-width: 0.39374; fill: rgb(43, 66, 84);" id="center-3-35-5-2" d="M 10.863 7.594 H 10.863 A 3.3 3.3 0 0 1 14.163 10.894 V 10.894 A 3.3 3.3 0 0 1 10.863 14.194 H 10.863 A 3.3 3.3 0 0 1 7.563 10.894 V 10.894 A 3.3 3.3 0 0 1 10.863 7.594 Z" bx:shape="rect 7.563 7.594 6.6 6.6 7.875 7.875 3.4 3.4 1@31c0b403"/></g><defs id="defs26"><bx:guide x="-30.239" y="-0.037" angle="90"/><bx:guide x="-44.012" y="11.042" angle="0"/><bx:guide x="-34.953" y="21.939" angle="90"/><bx:guide x="-21.912" y="11.226" angle="0"/><bx:guide x="0.124" y="11.164" angle="0"/><bx:guide x="22.101" y="26.891" angle="0"/><bx:guide x="19.53" y="43.949" angle="90"/><bx:guide x="-32.87" y="33.113" angle="90"/><bx:guide x="-32.993" y="34.889" angle="0"/><bx:guide x="-51.052" y="11.138" angle="90"/><bx:export><bx:file format="svg"/></bx:export></defs><style type="text/css" id="current-color-scheme"/><g id="active-center" transform="translate(-44)"><rect id="rect4266" width="22" height="22" x="0" y="0" style="opacity:0.00100002;fill:#000000;fill-opacity:1;fill-rule:nonzero;stroke:none;stroke-width:2;stroke-linecap:round;stroke-linejoin:round;stroke-miterlimit:4;stroke-dasharray:none;stroke-opacity:1"/><rect style="fill-opacity: 1; stroke: none; stroke-width: 0.39374; fill: rgb(43, 66, 84);" id="center-3-35-5" width="6.6" height="6.6" x="7.674" y="7.755" ry="7.875" rx="7.875"/></g><g id="hover-center" transform="translate(0,22)"><rect style="opacity:0.00100002;fill:#000000;fill-opacity:1;fill-rule:nonzero;stroke:none;stroke-width:2;stroke-linecap:round;stroke-linejoin:round;stroke-miterlimit:4;stroke-dasharray:none;stroke-opacity:1" y="-22" x="-22" height="22" width="22" id="rect4266-3"/><g transform="matrix(0.094646, 0, 0, -0.094646, -4.608062, -12.831089)" style=""><path d="M 0 0 L -9.103 0 L -9.103 20.602 L -27.308 20.602 L -27.308 36.891 L -112.587 36.891 L -112.587 20.602 L -134.146 20.602 L -134.146 0 L -146.419 -0.717 L -145.419 -56.217 L -134.146 -57.012 L -134.146 -84.8 L -112.587 -84.8 L -112.587 -104.442 L -27.308 -104.442 L -27.308 -84.8 L -9.103 -84.8 L -9.103 -57.012 L 0 -57.012 Z" style="fill: rgb(255, 184, 66); fill-opacity: 1;"/></g><g transform="matrix(0.094646, 0, 0, -0.094646, -7.532705, -19.269979)" style=""><path d="M 0 0 L -32.34 0 L -32.34 0.958 L -52.462 0.958 L -52.462 -46.473 L -32.34 -46.473 L -32.34 -20.123 L 0 -20.123 Z" style="fill: rgb(91, 192, 94); fill-opacity: 1;"/></g><g transform="matrix(0.094646, 0, 0, -0.094646, -74.684807, 36.026104)" style=""><path d="M 635.018 467.829 L 614.895 467.829 L 614.895 519.093 L 635.018 519.093 Z" style="fill: rgb(255, 223, 82); fill-opacity: 1;"/></g></g><g id="hover-inactive-center" transform="translate(-22,22)"><rect id="rect4266-3-67" width="22" height="22" x="0" y="0" style="opacity:0.00100002;fill:#000000;fill-opacity:1;fill-rule:nonzero;stroke:none;stroke-width:2;stroke-linecap:round;stroke-linejoin:round;stroke-miterlimit:4;stroke-dasharray:none;stroke-opacity:1"/><g transform="matrix(0.094646, 0, 0, -0.094646, 17.300203, 9.069341)" style=""><path d="M 0 0 L -9.103 0 L -9.103 20.602 L -27.308 20.602 L -27.308 36.891 L -112.587 36.891 L -112.587 20.602 L -134.146 20.602 L -134.146 0 L -146.419 -0.717 L -145.419 -56.217 L -134.146 -57.012 L -134.146 -84.8 L -112.587 -84.8 L -112.587 -104.442 L -27.308 -104.442 L -27.308 -84.8 L -9.103 -84.8 L -9.103 -57.012 L 0 -57.012 Z" style="fill: rgb(255, 184, 66); fill-opacity: 1;"/></g><g transform="matrix(0.094646, 0, 0, -0.094646, 14.375561, 2.630451)" style=""><path d="M 0 0 L -32.34 0 L -32.34 0.958 L -52.462 0.958 L -52.462 -46.473 L -32.34 -46.473 L -32.34 -20.123 L 0 -20.123 Z" style="fill: rgb(91, 192, 94); fill-opacity: 1;"/></g><g transform="matrix(0.094646, 0, 0, -0.094646, -52.776539, 57.926537)" style=""><path d="M 635.018 467.829 L 614.895 467.829 L 614.895 519.093 L 635.018 519.093 Z" style="fill: rgb(255, 223, 82); fill-opacity: 1;"/></g></g><g id="pressed-center"><rect id="rect4266-3-6" width="22" height="22" x="0" y="0" style="opacity:0.00100002;fill:#000000;fill-opacity:1;fill-rule:nonzero;stroke:none;stroke-width:2;stroke-linecap:round;stroke-linejoin:round;stroke-miterlimit:4;stroke-dasharray:none;stroke-opacity:1"/><g transform="matrix(0.094646, 0, 0, -0.094646, 17.521755, 9.11306)" style=""><path d="M 0 0 L -9.103 0 L -9.103 20.602 L -27.308 20.602 L -27.308 36.891 L -112.587 36.891 L -112.587 20.602 L -134.146 20.602 L -134.146 0 L -146.419 -0.717 L -145.419 -56.217 L -134.146 -57.012 L -134.146 -84.8 L -112.587 -84.8 L -112.587 -104.442 L -27.308 -104.442 L -27.308 -84.8 L -9.103 -84.8 L -9.103 -57.012 L 0 -57.012 Z" style="fill: rgb(255, 184, 66); fill-opacity: 1;"/></g><g transform="matrix(0.094646, 0, 0, -0.094646, 14.597112, 2.67417)" style=""><path d="M 0 0 L -32.34 0 L -32.34 0.958 L -52.462 0.958 L -52.462 -46.473 L -32.34 -46.473 L -32.34 -20.123 L 0 -20.123 Z" style="fill: rgb(91, 192, 94); fill-opacity: 1;"/></g><g transform="matrix(0.094646, 0, 0, -0.094646, -52.554989, 57.970253)" style=""><path d="M 635.018 467.829 L 614.895 467.829 L 614.895 519.093 L 635.018 519.093 Z" style="fill: rgb(255, 223, 82); fill-opacity: 1;"/></g></g><g id="pressed-inactive-center" transform="translate(-22)"><g id="g478"><rect style="opacity:0.00100002;fill:#000000;fill-opacity:1;fill-rule:nonzero;stroke:none;stroke-width:2;stroke-linecap:round;stroke-linejoin:round;stroke-miterlimit:4;stroke-dasharray:none;stroke-opacity:1" y="22" x="22" height="22" width="22" id="rect4266-3-6-5"/><g transform="matrix(0.094646, 0, 0, -0.094646, 39.521755, 31.02853)" style=""><path d="M 0 0 L -9.103 0 L -9.103 20.602 L -27.308 20.602 L -27.308 36.891 L -112.587 36.891 L -112.587 20.602 L -134.146 20.602 L -134.146 0 L -146.419 -0.717 L -145.419 -56.217 L -134.146 -57.012 L -134.146 -84.8 L -112.587 -84.8 L -112.587 -104.442 L -27.308 -104.442 L -27.308 -84.8 L -9.103 -84.8 L -9.103 -57.012 L 0 -57.012 Z" style="fill: rgb(255, 184, 66); fill-opacity: 1;"/></g><g transform="matrix(0.094646, 0, 0, -0.094646, 36.597111, 24.58964)" style=""><path d="M 0 0 L -32.34 0 L -32.34 0.958 L -52.462 0.958 L -52.462 -46.473 L -32.34 -46.473 L -32.34 -20.123 L 0 -20.123 Z" style="fill: rgb(91, 192, 94); fill-opacity: 1;"/></g><g transform="matrix(0.094646, 0, 0, -0.094646, -30.554989, 79.885719)" style=""><path d="M 635.018 467.829 L 614.895 467.829 L 614.895 519.093 L 635.018 519.093 Z" style="fill: rgb(255, 223, 82); fill-opacity: 1;"/></g></g></g></svg>