<?xml version="1.0" encoding="utf-8"?>
<svg id="svg4306" width="22" height="22" version="1.1" style="enable-background:new" xmlns="http://www.w3.org/2000/svg" xmlns:bx="https://boxy-svg.com" viewBox="0 0 22 22"><g id="hover-inactive-center" transform="translate(0,22)"><rect id="rect4266-3-67" width="22" height="22" x="-22" y="0" style="opacity:0.00100002;fill:#000000;fill-opacity:1;fill-rule:nonzero;stroke:none;stroke-width:2;stroke-linecap:round;stroke-linejoin:round;stroke-miterlimit:4;stroke-dasharray:none;stroke-opacity:1"/><path id="path-15" d="M -12.443 11.655 L -12.443 11.012 L -12.781 11.012 L -12.781 10.592 L -13.194 10.592 L -13.194 10.329 L -17.263 10.329 L -17.263 10.592 L -17.677 10.592 L -17.677 11.012 L -18.144 11.012 L -18.144 11.655 L -18.767 11.655 L -18.767 15.74 L -18.144 15.74 L -18.144 16.423 L -17.677 16.423 L -17.677 16.896 L -17.263 16.896 L -17.263 17.171 L -13.194 17.171 L -13.194 16.896 L -12.781 16.896 L -12.781 16.423 L -12.443 16.423 L -12.443 15.74 L -11.769 15.74 L -11.769 11.655 L -12.443 11.655 Z" style="fill: rgb(237, 32, 36); fill-opacity: 1; fill-rule: nonzero; stroke: none;"/><path id="path-16" d="M -16.892 14.925 L -18.066 14.925 L -18.066 13.744 L -16.892 13.744 L -16.892 14.925 Z" style="fill: rgb(255, 255, 255); fill-opacity: 1; fill-rule: nonzero; stroke: none;"/><path id="path-17" d="M -15.644 16.239 L -16.929 16.239 L -16.929 14.951 L -15.644 14.951 L -15.644 16.239 Z" style="fill: rgb(255, 255, 255); fill-opacity: 1; fill-rule: nonzero; stroke: none;"/><path id="path-18" d="M -8.588 13.822 L -8.588 13.179 L -8.924 13.179 L -8.924 12.772 L -9.34 12.772 L -9.34 12.496 L -13.407 12.496 L -13.407 12.772 L -13.823 12.772 L -13.823 13.179 L -14.289 13.179 L -14.289 13.822 L -14.911 13.822 L -14.911 17.908 L -14.289 17.908 L -14.289 18.603 L -13.823 18.603 L -13.823 19.063 L -13.407 19.063 L -13.407 19.338 L -9.34 19.338 L -9.34 19.063 L -8.924 19.063 L -8.924 18.603 L -8.588 18.603 L -8.588 17.908 L -7.914 17.908 L -7.914 13.822 L -8.588 13.822 Z" style="fill: rgb(237, 32, 36); fill-opacity: 1; fill-rule: nonzero; stroke: none;"/><path id="path-19" d="M -13.036 17.093 L -14.212 17.093 L -14.212 15.91 L -13.036 15.91 L -13.036 17.093 Z" style="fill: rgb(255, 255, 255); fill-opacity: 1; fill-rule: nonzero; stroke: none;"/><path id="path-20" d="M -11.789 18.406 L -13.073 18.406 L -13.073 17.131 L -11.789 17.131 L -11.789 18.406 Z" style="fill: rgb(255, 255, 255); fill-opacity: 1; fill-rule: nonzero; stroke: none;"/><path id="path-21" d="M -12.238 11.852 L -12.238 10.63 L -11.136 10.592 L -11.136 9.357 L -9.898 9.357 L -9.886 7.229 L -10.814 7.229 L -10.814 8.451 L -13.276 8.424 L -13.287 9.633 L -14.506 9.62 L -14.506 10.63 L -15.706 10.63 L -15.706 9.357 L -14.734 9.357 L -14.721 8.175 L -13.567 8.162 L -13.536 6.927 L -11.104 6.861 L -11.073 5.666 L -8.676 5.666 L -8.676 4.406 L -5.955 4.445 L -5.949 7.229 L -8.331 7.229 L -8.343 9.764 L -9.607 9.751 L -9.594 10.946 L -10.774 10.946 L -10.774 11.813 L -10.761 12.955 L -12.232 12.942 L -12.238 11.852 Z" style="fill: rgb(159, 96, 38); fill-opacity: 1; fill-rule: nonzero; stroke: none;"/></g><g id="inactive-center" transform="translate(-44,22)"><rect style="opacity:0.00100002;fill:#000000;fill-opacity:1;fill-rule:nonzero;stroke:none;stroke-width:2;stroke-linecap:round;stroke-linejoin:round;stroke-miterlimit:4;stroke-dasharray:none;stroke-opacity:1" y="0" x="0" height="22" width="22" id="rect4266-9"/><path id="path-1" d="M 9.666 12.05 L 9.666 11.407 L 9.328 11.407 L 9.328 10.987 L 8.915 10.987 L 8.915 10.724 L 4.846 10.724 L 4.846 10.987 L 4.432 10.987 L 4.432 11.407 L 3.965 11.407 L 3.965 12.05 L 3.342 12.05 L 3.342 16.135 L 3.965 16.135 L 3.965 16.818 L 4.432 16.818 L 4.432 17.291 L 4.846 17.291 L 4.846 17.566 L 8.915 17.566 L 8.915 17.291 L 9.328 17.291 L 9.328 16.818 L 9.666 16.818 L 9.666 16.135 L 10.34 16.135 L 10.34 12.05 L 9.666 12.05 Z" style="fill: rgb(237, 32, 36); fill-opacity: 1; fill-rule: nonzero; stroke: none;"/><path id="path-2" d="M 5.217 15.32 L 4.043 15.32 L 4.043 14.139 L 5.217 14.139 L 5.217 15.32 Z" style="fill: rgb(255, 255, 255); fill-opacity: 1; fill-rule: nonzero; stroke: none;"/><path id="path-3" d="M 6.465 16.634 L 5.18 16.634 L 5.18 15.346 L 6.465 15.346 L 6.465 16.634 Z" style="fill: rgb(255, 255, 255); fill-opacity: 1; fill-rule: nonzero; stroke: none;"/><path id="path-4" d="M 13.521 14.217 L 13.521 13.574 L 13.185 13.574 L 13.185 13.167 L 12.769 13.167 L 12.769 12.891 L 8.702 12.891 L 8.702 13.167 L 8.286 13.167 L 8.286 13.574 L 7.82 13.574 L 7.82 14.217 L 7.198 14.217 L 7.198 18.303 L 7.82 18.303 L 7.82 18.998 L 8.286 18.998 L 8.286 19.458 L 8.702 19.458 L 8.702 19.733 L 12.769 19.733 L 12.769 19.458 L 13.185 19.458 L 13.185 18.998 L 13.521 18.998 L 13.521 18.303 L 14.195 18.303 L 14.195 14.217 L 13.521 14.217 Z" style="fill: rgb(237, 32, 36); fill-opacity: 1; fill-rule: nonzero; stroke: none;"/><path id="path-5" d="M 9.073 17.488 L 7.897 17.488 L 7.897 16.305 L 9.073 16.305 L 9.073 17.488 Z" style="fill: rgb(255, 255, 255); fill-opacity: 1; fill-rule: nonzero; stroke: none;"/><path id="path-6" d="M 10.32 18.801 L 9.036 18.801 L 9.036 17.526 L 10.32 17.526 L 10.32 18.801 Z" style="fill: rgb(255, 255, 255); fill-opacity: 1; fill-rule: nonzero; stroke: none;"/><path id="path-7" d="M 9.871 12.247 L 9.871 11.025 L 10.973 10.987 L 10.973 9.752 L 12.211 9.752 L 12.223 7.624 L 11.295 7.624 L 11.295 8.846 L 8.833 8.819 L 8.822 10.028 L 7.603 10.015 L 7.603 11.025 L 6.403 11.025 L 6.403 9.752 L 7.375 9.752 L 7.388 8.57 L 8.542 8.557 L 8.573 7.322 L 11.005 7.256 L 11.036 6.061 L 13.433 6.061 L 13.433 4.801 L 16.154 4.84 L 16.16 7.624 L 13.778 7.624 L 13.766 10.159 L 12.502 10.146 L 12.515 11.341 L 11.335 11.341 L 11.335 12.208 L 11.348 13.35 L 9.877 13.337 L 9.871 12.247 Z" style="fill: rgb(159, 96, 38); fill-opacity: 1; fill-rule: nonzero; stroke: none;"/></g><defs id="defs26"><bx:export><bx:file format="svg"/></bx:export></defs><style type="text/css" id="current-color-scheme"/><g id="active-center" transform="translate(-44)"><rect id="rect4266" width="22" height="22" x="0" y="0" style="opacity:0.00100002;fill:#000000;fill-opacity:1;fill-rule:nonzero;stroke:none;stroke-width:2;stroke-linecap:round;stroke-linejoin:round;stroke-miterlimit:4;stroke-dasharray:none;stroke-opacity:1"/><path id="path21" d="M 9.551 11.429 L 9.551 10.786 L 9.213 10.786 L 9.213 10.366 L 8.8 10.366 L 8.8 10.103 L 4.731 10.103 L 4.731 10.366 L 4.317 10.366 L 4.317 10.786 L 3.85 10.786 L 3.85 11.429 L 3.227 11.429 L 3.227 15.514 L 3.85 15.514 L 3.85 16.197 L 4.317 16.197 L 4.317 16.67 L 4.731 16.67 L 4.731 16.945 L 8.8 16.945 L 8.8 16.67 L 9.213 16.67 L 9.213 16.197 L 9.551 16.197 L 9.551 15.514 L 10.225 15.514 L 10.225 11.429 L 9.551 11.429 Z" style="fill: rgb(237, 32, 36); fill-opacity: 1; fill-rule: nonzero; stroke: none;"/><path id="path22" d="M 5.102 14.699 L 3.928 14.699 L 3.928 13.518 L 5.102 13.518 L 5.102 14.699 Z" style="fill: rgb(255, 255, 255); fill-opacity: 1; fill-rule: nonzero; stroke: none;"/><path id="path23" d="M 6.35 16.013 L 5.065 16.013 L 5.065 14.725 L 6.35 14.725 L 6.35 16.013 Z" style="fill: rgb(255, 255, 255); fill-opacity: 1; fill-rule: nonzero; stroke: none;"/><path id="path24" d="M 13.406 13.596 L 13.406 12.953 L 13.07 12.953 L 13.07 12.546 L 12.654 12.546 L 12.654 12.27 L 8.587 12.27 L 8.587 12.546 L 8.171 12.546 L 8.171 12.953 L 7.705 12.953 L 7.705 13.596 L 7.083 13.596 L 7.083 17.682 L 7.705 17.682 L 7.705 18.377 L 8.171 18.377 L 8.171 18.837 L 8.587 18.837 L 8.587 19.112 L 12.654 19.112 L 12.654 18.837 L 13.07 18.837 L 13.07 18.377 L 13.406 18.377 L 13.406 17.682 L 14.08 17.682 L 14.08 13.596 L 13.406 13.596 Z" style="fill: rgb(237, 32, 36); fill-opacity: 1; fill-rule: nonzero; stroke: none;"/><path id="path25" d="M 8.958 16.867 L 7.782 16.867 L 7.782 15.684 L 8.958 15.684 L 8.958 16.867 Z" style="fill: rgb(255, 255, 255); fill-opacity: 1; fill-rule: nonzero; stroke: none;"/><path id="path26" d="M 10.205 18.18 L 8.921 18.18 L 8.921 16.905 L 10.205 16.905 L 10.205 18.18 Z" style="fill: rgb(255, 255, 255); fill-opacity: 1; fill-rule: nonzero; stroke: none;"/><path id="path27" d="M 9.756 11.626 L 9.756 10.404 L 10.858 10.366 L 10.858 9.131 L 12.096 9.131 L 12.108 7.003 L 11.18 7.003 L 11.18 8.225 L 8.718 8.198 L 8.707 9.407 L 7.488 9.394 L 7.488 10.404 L 6.288 10.404 L 6.288 9.131 L 7.26 9.131 L 7.273 7.949 L 8.427 7.936 L 8.458 6.701 L 10.89 6.635 L 10.921 5.44 L 13.318 5.44 L 13.318 4.18 L 16.039 4.219 L 16.045 7.003 L 13.663 7.003 L 13.651 9.538 L 12.387 9.525 L 12.4 10.72 L 11.22 10.72 L 11.22 11.587 L 11.233 12.729 L 9.762 12.716 L 9.756 11.626 Z" style="fill: rgb(159, 96, 38); fill-opacity: 1; fill-rule: nonzero; stroke: none;"/></g><g id="hover-center" transform="translate(0,22)"><rect style="opacity:0.00100002;fill:#000000;fill-opacity:1;fill-rule:nonzero;stroke:none;stroke-width:2;stroke-linecap:round;stroke-linejoin:round;stroke-miterlimit:4;stroke-dasharray:none;stroke-opacity:1" y="-22" x="-22" height="22" width="22" id="rect4266-3"/><path id="path-8" d="M -12.179 -10.368 L -12.179 -11.011 L -12.517 -11.011 L -12.517 -11.431 L -12.93 -11.431 L -12.93 -11.694 L -16.999 -11.694 L -16.999 -11.431 L -17.413 -11.431 L -17.413 -11.011 L -17.88 -11.011 L -17.88 -10.368 L -18.503 -10.368 L -18.503 -6.283 L -17.88 -6.283 L -17.88 -5.6 L -17.413 -5.6 L -17.413 -5.127 L -16.999 -5.127 L -16.999 -4.852 L -12.93 -4.852 L -12.93 -5.127 L -12.517 -5.127 L -12.517 -5.6 L -12.179 -5.6 L -12.179 -6.283 L -11.505 -6.283 L -11.505 -10.368 L -12.179 -10.368 Z" style="fill: rgb(237, 32, 36); fill-opacity: 1; fill-rule: nonzero; stroke: none;"/><path id="path-9" d="M -16.628 -7.098 L -17.802 -7.098 L -17.802 -8.279 L -16.628 -8.279 L -16.628 -7.098 Z" style="fill: rgb(255, 255, 255); fill-opacity: 1; fill-rule: nonzero; stroke: none;"/><path id="path-10" d="M -15.38 -5.784 L -16.665 -5.784 L -16.665 -7.072 L -15.38 -7.072 L -15.38 -5.784 Z" style="fill: rgb(255, 255, 255); fill-opacity: 1; fill-rule: nonzero; stroke: none;"/><path id="path-11" d="M -8.324 -8.201 L -8.324 -8.844 L -8.66 -8.844 L -8.66 -9.251 L -9.076 -9.251 L -9.076 -9.527 L -13.143 -9.527 L -13.143 -9.251 L -13.559 -9.251 L -13.559 -8.844 L -14.025 -8.844 L -14.025 -8.201 L -14.647 -8.201 L -14.647 -4.115 L -14.025 -4.115 L -14.025 -3.42 L -13.559 -3.42 L -13.559 -2.96 L -13.143 -2.96 L -13.143 -2.685 L -9.076 -2.685 L -9.076 -2.96 L -8.66 -2.96 L -8.66 -3.42 L -8.324 -3.42 L -8.324 -4.115 L -7.65 -4.115 L -7.65 -8.201 L -8.324 -8.201 Z" style="fill: rgb(237, 32, 36); fill-opacity: 1; fill-rule: nonzero; stroke: none;"/><path id="path-12" d="M -12.772 -4.93 L -13.948 -4.93 L -13.948 -6.113 L -12.772 -6.113 L -12.772 -4.93 Z" style="fill: rgb(255, 255, 255); fill-opacity: 1; fill-rule: nonzero; stroke: none;"/><path id="path-13" d="M -11.525 -3.617 L -12.809 -3.617 L -12.809 -4.892 L -11.525 -4.892 L -11.525 -3.617 Z" style="fill: rgb(255, 255, 255); fill-opacity: 1; fill-rule: nonzero; stroke: none;"/><path id="path-14" d="M -11.974 -10.171 L -11.974 -11.393 L -10.872 -11.431 L -10.872 -12.666 L -9.634 -12.666 L -9.622 -14.794 L -10.55 -14.794 L -10.55 -13.572 L -13.012 -13.599 L -13.023 -12.39 L -14.242 -12.403 L -14.242 -11.393 L -15.442 -11.393 L -15.442 -12.666 L -14.47 -12.666 L -14.457 -13.848 L -13.303 -13.861 L -13.272 -15.096 L -10.84 -15.162 L -10.809 -16.357 L -8.412 -16.357 L -8.412 -17.617 L -5.691 -17.578 L -5.685 -14.794 L -8.067 -14.794 L -8.079 -12.259 L -9.343 -12.272 L -9.33 -11.077 L -10.51 -11.077 L -10.51 -10.21 L -10.497 -9.068 L -11.968 -9.081 L -11.974 -10.171 Z" style="fill: rgb(159, 96, 38); fill-opacity: 1; fill-rule: nonzero; stroke: none;"/></g><g id="pressed-center" transform="translate(0,22)"><rect id="rect4266-3-6" width="22" height="22" x="0" y="-22" style="opacity:0.00100002;fill:#000000;fill-opacity:1;fill-rule:nonzero;stroke:none;stroke-width:2;stroke-linecap:round;stroke-linejoin:round;stroke-miterlimit:4;stroke-dasharray:none;stroke-opacity:1"/><path id="path-22" d="M 10.041 -9.849 L 10.041 -10.492 L 9.703 -10.492 L 9.703 -10.912 L 9.29 -10.912 L 9.29 -11.175 L 5.221 -11.175 L 5.221 -10.912 L 4.807 -10.912 L 4.807 -10.492 L 4.34 -10.492 L 4.34 -9.849 L 3.717 -9.849 L 3.717 -5.764 L 4.34 -5.764 L 4.34 -5.081 L 4.807 -5.081 L 4.807 -4.608 L 5.221 -4.608 L 5.221 -4.333 L 9.29 -4.333 L 9.29 -4.608 L 9.703 -4.608 L 9.703 -5.081 L 10.041 -5.081 L 10.041 -5.764 L 10.715 -5.764 L 10.715 -9.849 L 10.041 -9.849 Z" style="fill: rgb(237, 32, 36); fill-opacity: 1; fill-rule: nonzero; stroke: none;"/><path id="path-23" d="M 5.592 -6.579 L 4.418 -6.579 L 4.418 -7.76 L 5.592 -7.76 L 5.592 -6.579 Z" style="fill: rgb(255, 255, 255); fill-opacity: 1; fill-rule: nonzero; stroke: none;"/><path id="path-24" d="M 6.84 -5.265 L 5.555 -5.265 L 5.555 -6.553 L 6.84 -6.553 L 6.84 -5.265 Z" style="fill: rgb(255, 255, 255); fill-opacity: 1; fill-rule: nonzero; stroke: none;"/><path id="path-25" d="M 13.896 -7.682 L 13.896 -8.325 L 13.56 -8.325 L 13.56 -8.732 L 13.144 -8.732 L 13.144 -9.008 L 9.077 -9.008 L 9.077 -8.732 L 8.661 -8.732 L 8.661 -8.325 L 8.195 -8.325 L 8.195 -7.682 L 7.573 -7.682 L 7.573 -3.596 L 8.195 -3.596 L 8.195 -2.901 L 8.661 -2.901 L 8.661 -2.441 L 9.077 -2.441 L 9.077 -2.166 L 13.144 -2.166 L 13.144 -2.441 L 13.56 -2.441 L 13.56 -2.901 L 13.896 -2.901 L 13.896 -3.596 L 14.57 -3.596 L 14.57 -7.682 L 13.896 -7.682 Z" style="fill: rgb(237, 32, 36); fill-opacity: 1; fill-rule: nonzero; stroke: none;"/><path id="path-26" d="M 9.448 -4.411 L 8.272 -4.411 L 8.272 -5.594 L 9.448 -5.594 L 9.448 -4.411 Z" style="fill: rgb(255, 255, 255); fill-opacity: 1; fill-rule: nonzero; stroke: none;"/><path id="path-27" d="M 10.695 -3.098 L 9.411 -3.098 L 9.411 -4.373 L 10.695 -4.373 L 10.695 -3.098 Z" style="fill: rgb(255, 255, 255); fill-opacity: 1; fill-rule: nonzero; stroke: none;"/><path id="path-28" d="M 10.246 -9.652 L 10.246 -10.874 L 11.348 -10.912 L 11.348 -12.147 L 12.586 -12.147 L 12.598 -14.275 L 11.67 -14.275 L 11.67 -13.053 L 9.208 -13.08 L 9.197 -11.871 L 7.978 -11.884 L 7.978 -10.874 L 6.778 -10.874 L 6.778 -12.147 L 7.75 -12.147 L 7.763 -13.329 L 8.917 -13.342 L 8.948 -14.577 L 11.38 -14.643 L 11.411 -15.838 L 13.808 -15.838 L 13.808 -17.098 L 16.529 -17.059 L 16.535 -14.275 L 14.153 -14.275 L 14.141 -11.74 L 12.877 -11.753 L 12.89 -10.558 L 11.71 -10.558 L 11.71 -9.691 L 11.723 -8.549 L 10.252 -8.562 L 10.246 -9.652 Z" style="fill: rgb(159, 96, 38); fill-opacity: 1; fill-rule: nonzero; stroke: none;"/></g><g id="pressed-inactive-center" transform="translate(0,22)"><rect style="opacity:0.00100002;fill:#000000;fill-opacity:1;fill-rule:nonzero;stroke:none;stroke-width:2;stroke-linecap:round;stroke-linejoin:round;stroke-miterlimit:4;stroke-dasharray:none;stroke-opacity:1" y="0" x="0" height="22" width="22" id="rect4266-3-6-5"/><path id="path-29" d="M 9.779 12.043 L 9.779 11.4 L 9.441 11.4 L 9.441 10.98 L 9.028 10.98 L 9.028 10.717 L 4.959 10.717 L 4.959 10.98 L 4.545 10.98 L 4.545 11.4 L 4.078 11.4 L 4.078 12.043 L 3.455 12.043 L 3.455 16.128 L 4.078 16.128 L 4.078 16.811 L 4.545 16.811 L 4.545 17.284 L 4.959 17.284 L 4.959 17.559 L 9.028 17.559 L 9.028 17.284 L 9.441 17.284 L 9.441 16.811 L 9.779 16.811 L 9.779 16.128 L 10.453 16.128 L 10.453 12.043 L 9.779 12.043 Z" style="fill: rgb(237, 32, 36); fill-opacity: 1; fill-rule: nonzero; stroke: none;"/><path id="path-30" d="M 5.33 15.313 L 4.156 15.313 L 4.156 14.132 L 5.33 14.132 L 5.33 15.313 Z" style="fill: rgb(255, 255, 255); fill-opacity: 1; fill-rule: nonzero; stroke: none;"/><path id="path-31" d="M 6.578 16.627 L 5.293 16.627 L 5.293 15.339 L 6.578 15.339 L 6.578 16.627 Z" style="fill: rgb(255, 255, 255); fill-opacity: 1; fill-rule: nonzero; stroke: none;"/><path id="path-32" d="M 13.634 14.21 L 13.634 13.567 L 13.298 13.567 L 13.298 13.16 L 12.882 13.16 L 12.882 12.884 L 8.815 12.884 L 8.815 13.16 L 8.399 13.16 L 8.399 13.567 L 7.933 13.567 L 7.933 14.21 L 7.311 14.21 L 7.311 18.296 L 7.933 18.296 L 7.933 18.991 L 8.399 18.991 L 8.399 19.451 L 8.815 19.451 L 8.815 19.726 L 12.882 19.726 L 12.882 19.451 L 13.298 19.451 L 13.298 18.991 L 13.634 18.991 L 13.634 18.296 L 14.308 18.296 L 14.308 14.21 L 13.634 14.21 Z" style="fill: rgb(237, 32, 36); fill-opacity: 1; fill-rule: nonzero; stroke: none;"/><path id="path-33" d="M 9.186 17.481 L 8.01 17.481 L 8.01 16.298 L 9.186 16.298 L 9.186 17.481 Z" style="fill: rgb(255, 255, 255); fill-opacity: 1; fill-rule: nonzero; stroke: none;"/><path id="path-34" d="M 10.433 18.794 L 9.149 18.794 L 9.149 17.519 L 10.433 17.519 L 10.433 18.794 Z" style="fill: rgb(255, 255, 255); fill-opacity: 1; fill-rule: nonzero; stroke: none;"/><path id="path-35" d="M 9.984 12.24 L 9.984 11.018 L 11.086 10.98 L 11.086 9.745 L 12.324 9.745 L 12.336 7.617 L 11.408 7.617 L 11.408 8.839 L 8.946 8.812 L 8.935 10.021 L 7.716 10.008 L 7.716 11.018 L 6.516 11.018 L 6.516 9.745 L 7.488 9.745 L 7.501 8.563 L 8.655 8.55 L 8.686 7.315 L 11.118 7.249 L 11.149 6.054 L 13.546 6.054 L 13.546 4.794 L 16.267 4.833 L 16.273 7.617 L 13.891 7.617 L 13.879 10.152 L 12.615 10.139 L 12.628 11.334 L 11.448 11.334 L 11.448 12.201 L 11.461 13.343 L 9.99 13.33 L 9.984 12.24 Z" style="fill: rgb(159, 96, 38); fill-opacity: 1; fill-rule: nonzero; stroke: none;"/></g></svg>